<?xml version="1.0" encoding="UTF-8"?>
<svg version="1.1" xmlns="http://www.w3.org/2000/svg" width="2584" height="1476">
<path d="M0 0 C852.72 0 1705.44 0 2584 0 C2584 429 2584 858 2584 1300 C1731.28 1300 878.56 1300 0 1300 C0 871 0 442 0 0 Z " fill="#ED1A2D" transform="translate(0,88)"/>
<path d="M0 0 C4.98048164 2.04161728 9.48380232 4.87963483 14.015625 7.75634766 C49.48092863 29.98324931 91.77972636 43.10909482 131 57 C132.03685944 57.36795685 132.03685944 57.36795685 133.09466553 57.74334717 C152.03534232 64.49274664 152.03534232 64.49274664 171.31640625 70.16772461 C177.83245206 71.89153421 184.21842335 73.97213806 190.625 76.0625 C198.85970617 78.74355271 207.05795551 81.18178669 215.5 83.11328125 C218.1490935 83.78442436 220.63615315 84.53361178 223.2109375 85.421875 C228.6025986 87.25921529 234.09277675 88.59538406 239.625 89.9375 C246.09546551 91.51888518 252.55134396 93.1350434 258.984375 94.86328125 C268.50818708 97.41683744 278.06191888 99.84807454 287.625 102.25 C288.58131317 102.49021881 289.53762634 102.73043762 290.5229187 102.97793579 C305.9091067 106.83097435 321.34148446 110.34769759 336.85958862 113.62341309 C337.60072906 113.77991333 338.34186951 113.93641357 339.10546875 114.09765625 C339.84105011 114.25286743 340.57663147 114.40807861 341.33450317 114.56799316 C348.80097155 116.15279336 356.23269857 117.88089218 363.66644287 119.61151123 C379.00457531 123.17762172 394.38580744 126.31218705 409.86474609 129.21728516 C414.43044484 130.0777974 418.9907761 130.96534581 423.55078125 131.85546875 C424.3592601 132.01326309 425.16773895 132.17105743 426.00071716 132.33363342 C428.4171897 132.80552601 430.8336027 133.27772231 433.25 133.75 C436.21334785 134.32912418 439.1769007 134.90718066 442.140625 135.484375 C442.8269249 135.61861374 443.51322479 135.75285248 444.22032166 135.89115906 C449.08585546 136.83796264 453.96143647 137.70498591 458.85302734 138.50585938 C464.89385646 139.89619803 468.46975505 144.25938536 472 149 C473.16798454 152.50395363 473.13928966 155.64429567 473.12863445 159.28865528 C473.13038749 160.04022873 473.13214053 160.79180218 473.13394669 161.56615058 C473.13862848 164.10497561 473.13613556 166.64374392 473.13371277 169.18257141 C473.13557969 171.01326758 473.13787992 172.84396335 473.14057809 174.67465848 C473.14671811 179.72191494 473.14655989 184.76915489 473.14538372 189.81641424 C473.14518024 195.25446351 473.1506937 200.69250741 473.15544128 206.1305542 C473.16376271 216.79563744 473.16649688 227.46071515 473.16705366 238.12580136 C473.16752854 246.80164881 473.1695819 255.47749443 473.17275429 264.15334129 C473.18156838 288.76004832 473.18617907 313.36675123 473.18542381 337.97345982 C473.1853939 338.96887582 473.1853939 338.96887582 473.18536337 339.98440124 C473.18532294 341.32639069 473.18528114 342.66838014 473.18523798 344.01036958 C473.18462641 364.84896107 473.19210838 385.68753623 473.20581055 406.52612305 C473.2212056 429.9488615 473.22976189 453.37158933 473.22884732 476.79433316 C473.22851601 489.19058198 473.23123354 501.58681243 473.24202538 513.98305702 C473.25116422 524.54851481 473.25327832 535.11394592 473.24651595 545.67940596 C473.24326649 551.06330438 473.24313642 556.4471517 473.2518692 561.83104515 C473.31551375 603.68145904 473.31551375 603.68145904 471 621 C470.90800493 621.71507143 470.81600985 622.43014285 470.72122705 623.16688311 C470.16262181 627.48007018 469.52038614 631.77130592 468.8125 636.0625 C468.70740112 636.70443298 468.60230225 637.34636597 468.49401855 638.00775146 C457.35191549 705.46247906 429.77306489 771.87835065 394 830 C393.48775879 830.83724609 392.97551758 831.67449219 392.44775391 832.53710938 C380.89773296 851.34619065 368.24960081 869.35556845 355 887 C354.30197266 887.93199219 354.30197266 887.93199219 353.58984375 888.8828125 C348.17853452 896.0871227 342.51105286 903.03701861 336.65234375 909.87890625 C334.21448781 912.73111869 331.85267662 915.63947753 329.5 918.5625 C325.37595882 923.63255779 321.00601134 928.43114416 316.5625 933.21875 C314.4534211 935.50787222 312.40021288 937.82475164 310.375 940.1875 C307.15609196 943.90695594 303.68385058 947.33212043 300.18359375 950.78515625 C298.22025329 952.77659461 296.37920331 954.81302578 294.5625 956.9375 C288.58621151 963.88216857 282.02111759 970.20775431 275.0625 976.15625 C272.61075311 978.34796313 270.31114427 980.66067104 268 983 C264.4882345 986.54918157 260.90991099 989.91968457 257.1171875 993.1640625 C254.59400545 995.3520617 252.14445481 997.61293113 249.6875 999.875 C244.81067418 1004.31818194 239.78485299 1008.51848437 234.65039062 1012.65869141 C232.751612 1014.20187037 230.86744261 1015.76190797 228.984375 1017.32421875 C214.38324196 1029.43554407 199.31622212 1040.81135961 184 1052 C183.20271484 1052.58281738 182.40542969 1053.16563477 181.58398438 1053.76611328 C172.5190426 1060.38262841 163.41478894 1066.88634591 154 1073 C152.74209907 1073.82408378 151.48429267 1074.64831187 150.2265625 1075.47265625 C138.93964275 1082.84546571 127.49617299 1089.95894539 116 1097 C115.33291016 1097.40959961 114.66582031 1097.81919922 113.97851562 1098.24121094 C81.02974487 1118.42714754 46.68742817 1136.61894067 11.875 1153.375 C10.72491455 1153.92857178 9.5748291 1154.48214355 8.38989258 1155.05249023 C0.34507818 1158.89532842 -6.80646922 1162.29452937 -15.84155273 1159.41259766 C-20.95343446 1157.41957811 -25.8435821 1154.94558192 -30.75 1152.5 C-32.34332124 1151.72420242 -33.93732692 1150.9498091 -35.53198242 1150.17675781 C-40.37211229 1147.81902878 -45.18830555 1145.4151216 -50 1143 C-51.09021454 1142.45460571 -51.09021454 1142.45460571 -52.20245361 1141.89819336 C-68.84703946 1133.56706091 -85.22993445 1124.82669018 -101.35302734 1115.52050781 C-103.97264405 1114.01571416 -106.60317409 1112.53216109 -109.23828125 1111.0546875 C-122.75983539 1103.45277791 -135.90492937 1095.31119491 -149 1087 C-150.07991211 1086.3179248 -151.15982422 1085.63584961 -152.27246094 1084.93310547 C-163.81347871 1077.64216188 -175.27847499 1070.33410536 -186.28076172 1062.24804688 C-188.94592715 1060.31332298 -191.64986334 1058.43470974 -194.34936523 1056.54833984 C-201.78486264 1051.34636251 -209.0592721 1046.00168538 -216.20263672 1040.40283203 C-218.24371176 1038.80978433 -220.29523873 1037.23074949 -222.34765625 1035.65234375 C-230.40215889 1029.44536821 -238.33195908 1023.14406912 -246.046875 1016.51953125 C-248.89235657 1014.09183864 -251.77919283 1011.7268294 -254.6875 1009.375 C-259.14622116 1005.74580836 -263.43797224 1001.96871044 -267.6875 998.09765625 C-269.66384372 996.30492554 -271.6645673 994.55204773 -273.6875 992.8125 C-285.22948296 982.72795374 -296.17518957 971.98958686 -306.99169922 961.13867188 C-309.023262 959.10167579 -311.06021836 957.07018049 -313.09765625 955.0390625 C-314.41959207 953.71646683 -315.74121817 952.39356151 -317.0625 951.0703125 C-317.65740234 950.47743439 -318.25230469 949.88455627 -318.86523438 949.27371216 C-322.54534784 945.57330777 -326.03406998 941.74911619 -329.44180298 937.79631042 C-331.69245452 935.20172914 -334.03391575 932.70082618 -336.375 930.1875 C-340.59274087 925.61702095 -344.6095264 920.9306113 -348.5078125 916.08203125 C-350.37869084 913.76835882 -352.26731879 911.47813421 -354.1796875 909.19921875 C-362.90245741 898.77853805 -371.0754024 888.03799759 -379 877 C-379.53399414 876.25685547 -380.06798828 875.51371094 -380.61816406 874.74804688 C-384.12010987 869.86050146 -387.57883305 864.94440663 -391 860 C-391.41668945 859.39833008 -391.83337891 858.79666016 -392.26269531 858.17675781 C-436.35438339 794.14980932 -469.72658203 719.8148602 -483.40917969 643.05932617 C-483.87040224 640.67107003 -484.38657678 638.31966437 -484.93700409 635.95181179 C-490.11462109 612.55822043 -489.44718022 588.64397284 -489.4214921 564.8331145 C-489.41879209 559.29617994 -489.43340756 553.75928447 -489.44558716 548.22236633 C-489.46650941 537.41392045 -489.47119004 526.60552835 -489.46939927 515.79706459 C-489.46808659 507.0143518 -489.47192142 498.23165566 -489.47932434 489.448946 C-489.48142367 486.91002689 -489.48352127 484.37110778 -489.48561716 481.83218867 C-489.48666069 480.56825415 -489.48770422 479.30431964 -489.48877937 478.00208408 C-489.50228265 460.92754398 -489.50991879 443.85300926 -489.50545502 426.77846432 C-489.50528306 426.1128979 -489.50511111 425.44733149 -489.50493394 424.7615964 C-489.50404519 421.38903739 -489.50310037 418.01647839 -489.50213593 414.6439194 C-489.5019449 413.97423287 -489.50175387 413.30454633 -489.50155704 412.61456627 C-489.50116995 411.26031077 -489.50077962 409.90605527 -489.50038607 408.55179977 C-489.49440337 387.43447227 -489.5099252 366.31725406 -489.54199219 345.19995117 C-489.57806418 321.42559633 -489.59736019 297.65130086 -489.59245348 273.87691122 C-489.59020885 261.30478335 -489.5954534 248.73276405 -489.62034607 236.16065788 C-489.64132876 225.47341672 -489.64497972 214.78634388 -489.62604648 204.09909587 C-489.61687563 198.64782594 -489.6157881 193.19687018 -489.63640213 187.74562454 C-489.65506034 182.75664821 -489.65066666 177.76824457 -489.62785631 172.77929039 C-489.62365804 170.97438827 -489.62791166 169.16944267 -489.64145225 167.36458647 C-489.71584597 156.72466274 -489.47302916 149.78577369 -481.8125 141.6875 C-474.77005855 137.46203513 -466.13836359 136.31513313 -458.1484375 134.9140625 C-456.62363266 134.63857071 -456.62363266 134.63857071 -455.06802368 134.35751343 C-451.83796529 133.77456613 -448.60662968 133.1991671 -445.375 132.625 C-428.85605912 129.67645787 -412.40676063 126.52177305 -396 123 C-394.42889465 122.6633432 -394.42889465 122.6633432 -392.8260498 122.31988525 C-335.57026584 110.12235391 -335.57026584 110.12235391 -278.8125 95.8359375 C-272.42061377 94.09548315 -265.99886126 92.5037389 -259.5625 90.9375 C-249.86442934 88.55786218 -240.33792444 85.75848376 -230.8046875 82.79296875 C-222.93503606 80.3459112 -215.01655675 78.06842122 -207.1015625 75.7734375 C-206.14169434 75.4940332 -205.18182617 75.21462891 -204.19287109 74.92675781 C-201.89511498 74.25981468 -199.59576148 73.59836594 -197.29541016 72.94042969 C-185.13480644 69.43989133 -173.12642057 65.50868121 -161.125 61.5 C-160.0777475 61.15062378 -159.030495 60.80124756 -157.95150757 60.44128418 C-122.69537094 48.65701376 -87.97571128 35.62456293 -54.21289062 20.02050781 C-52.04739654 19.02185763 -49.87584779 18.03749107 -47.703125 17.0546875 C-46.30125781 16.41325949 -44.90020747 15.77004307 -43.5 15.125 C-42.81856934 14.81208008 -42.13713867 14.49916016 -41.43505859 14.17675781 C-37.50137988 12.32377112 -33.75058533 10.29613885 -30.0234375 8.0546875 C-11.53146942 -3.01306137 -11.53146942 -3.01306137 0 0 Z " fill="#FEFEFE" transform="translate(576,158)"/>
<path d="M0 0 C180.84 0 361.68 0 548 0 C548.48454371 156.63324059 548.48454371 156.63324059 548.57797956 216.64620829 C548.6024735 232.33874455 548.62752827 248.03127977 548.65431193 263.72381231 C548.65755003 265.62189043 548.66077048 267.51996857 548.66397306 269.41804674 C548.71515376 299.66463151 548.80518273 329.91094669 548.91556665 360.15736857 C549.028831 391.24961412 549.10264221 422.34171064 549.12697988 453.434159 C549.13043762 457.82811566 549.13434526 462.22207181 549.13852692 466.61602783 C549.13974053 467.91318798 549.13974053 467.91318798 549.14097866 469.23655339 C549.15514637 483.14391362 549.21076739 497.05081239 549.28198441 510.95798461 C549.35273507 524.94750677 549.3795902 538.93657255 549.36201653 552.92626727 C549.35290547 561.23303752 549.3770712 569.53813435 549.44957052 577.84460164 C549.50007307 584.05663862 549.48742953 590.26707429 549.45078674 596.47917485 C549.44572834 598.98554503 549.46085054 601.49205767 549.49859819 603.99814868 C549.71706031 619.40218047 548.27473818 629.15519118 537.39254966 640.49701023 C535.48336101 642.55761251 533.94442918 644.81115453 532.40625 647.15625 C531.67728516 648.24099609 531.67728516 648.24099609 530.93359375 649.34765625 C530.46050781 650.05792969 529.98742187 650.76820313 529.5 651.5 C525.02372843 658.13351088 520.37135441 664.57898908 515.51953125 670.94140625 C511.15546322 676.70289239 507.07272763 682.63740348 503.06640625 688.65234375 C502.06925613 690.13616661 501.04239686 691.60037707 499.98954773 693.04521179 C498.44444504 695.33992991 497.21454638 697.49921901 495.96296692 699.94490051 C492.90032325 705.42594404 489.59114356 710.72809083 483.44028854 712.90659714 C476.13820696 714.25875281 468.72534155 713.95131596 461.33358574 713.7207818 C457.78002572 713.62881239 454.22619322 713.63328712 450.67163086 713.62435913 C444.28281342 713.59526795 437.89695713 713.505636 431.5093689 713.37869263 C421.8742031 713.18795607 412.23966864 713.0905052 402.60300791 713.01279581 C385.97874949 712.8765876 369.35582844 712.6747648 352.73263586 712.44452536 C328.358651 712.1082545 303.9847741 711.85642255 279.609375 711.65136719 C278.76882316 711.64429144 277.92827132 711.6372157 277.06224822 711.62992553 C267.48708282 711.54947615 257.91190476 711.47059854 248.33672142 711.39231682 C230.42732732 711.24587869 212.51798159 711.09368276 194.60864258 710.94067383 C193.71350107 710.93303397 192.81835956 710.92539411 191.89609255 710.91752274 C152.99594994 710.58533969 114.09616976 710.22022845 75.19659153 709.82757309 C69.58192759 709.77099517 63.96725213 709.71568983 58.35256958 709.66099167 C21.56386194 709.30189402 -15.21800463 708.81818 -52 708 C-50.6400416 704.49863859 -49.1641535 701.49324427 -47.0859375 698.359375 C-46.20373535 697.01963623 -46.20373535 697.01963623 -45.30371094 695.65283203 C-44.66723633 694.69489746 -44.03076172 693.73696289 -43.375 692.75 C-42.01202909 690.68034027 -40.65008546 688.61000373 -39.2890625 686.5390625 C-38.58297852 685.4655957 -37.87689453 684.39212891 -37.14941406 683.28613281 C-33.64265933 677.92482901 -30.19581007 672.52560087 -26.75 667.125 C-21.76192277 659.31344883 -16.76169513 651.51060389 -11.71191406 643.73876953 C-10.93147358 642.53658235 -10.16530566 641.32498992 -9.41482216 640.10387737 C-8 638 -8 638 -6.25286764 636.09485835 C1.76949197 626.28607242 -0.03513741 613.86097059 -0.12025452 601.87385559 C-0.11306855 599.27810219 -0.10281281 596.68235578 -0.08975595 594.08662528 C-0.06632812 588.4490468 -0.06869615 582.81194323 -0.08818626 577.17435646 C-0.11704869 568.79165629 -0.10567883 560.40934395 -0.08618858 552.02663391 C-0.05453279 537.92407709 -0.05532111 523.82169737 -0.07469368 509.71912575 C-0.0937645 495.75879068 -0.09835774 481.79857404 -0.08367729 467.83823204 C-0.08277212 466.96974875 -0.08186695 466.10126545 -0.08093435 465.20646448 C-0.07626217 460.79575462 -0.07133193 456.3850451 -0.06630235 451.97433563 C-0.03115538 420.74515855 -0.02837552 389.51605429 -0.04467773 358.28686523 C-0.06043947 327.95090813 -0.06139264 297.61500898 -0.04272461 267.27905273 C-0.04157112 265.37094524 -0.04041807 263.46283774 -0.03926545 261.55473024 C-0.02982065 246.05019224 -0.0193546 230.54565494 -0.008641 215.04111778 C0.04015397 143.3607005 0.01433077 71.680489 0 0 Z " fill="#147648" transform="translate(290,354)"/>
<path d="M0 0 C21.12 0 42.24 0 64 0 C64.33 47.52 64.66 95.04 65 144 C69.95 134.76 74.9 125.52 80 116 C86.4375 104.625 86.4375 104.625 89.62109375 99.0390625 C93.90162718 91.45436918 97.95547401 83.75004 102.03048706 76.05377197 C106.89167639 66.87869387 111.89244933 57.80256648 117.05102539 48.7902832 C122.3838779 39.4258173 127.4256335 29.90991736 132.4453125 20.375 C132.76971817 19.76114944 133.09412384 19.14729889 133.42835999 18.5148468 C134.30663208 16.85247986 135.18164412 15.18839167 136.05639648 13.52416992 C136.36889343 12.98709412 136.68139038 12.45001831 137.00335693 11.89666748 C138.09601432 9.92866073 138.09601432 9.92866073 138.91802979 7.38995361 C140.27327338 4.19064697 141.37959376 2.30676206 144 0 C150.09461062 -1.44213813 156.07765095 -1.1649014 162.3046875 -0.9765625 C164.11211225 -0.95789936 165.91958777 -0.94367034 167.7270813 -0.9336853 C172.47299118 -0.89559347 177.21581552 -0.79745388 181.96051025 -0.68664551 C186.80658217 -0.58414435 191.65315536 -0.53863374 196.5 -0.48828125 C206.00135206 -0.38119515 215.50041899 -0.21064326 225 0 C224.21869885 1.42785285 223.43472805 2.8542451 222.6496582 4.2800293 C222.21337601 5.07450974 221.77709381 5.86899017 221.32759094 6.68754578 C219.48761399 9.89249568 217.38351276 12.84541166 215.1875 15.8125 C214.29802038 17.03670182 213.41001739 18.26197779 212.5234375 19.48828125 C212.0912793 20.08592285 211.65912109 20.68356445 211.21386719 21.29931641 C208.84248934 24.62172552 206.61646422 28.03978108 204.3671875 31.4453125 C201.26888206 36.11893412 198.09898432 40.74400273 194.9375 45.375 C193.96937378 46.79329102 193.96937378 46.79329102 192.98168945 48.24023438 C191.65055026 50.18988765 190.31924966 52.13943072 188.98779297 54.08886719 C185.82267736 58.72419494 182.66146804 63.36218408 179.5 68 C178.25002022 69.83334712 177.00002018 71.66668043 175.75 73.5 C174.821875 74.86125 174.821875 74.86125 173.875 76.25 C168.25 84.5 168.25 84.5 166.37158203 87.25415039 C165.13190253 89.07291837 163.89328131 90.89240817 162.65576172 92.71264648 C159.38153366 97.52552853 156.08552316 102.32156445 152.7578125 107.09765625 C152.06623047 108.09603516 151.37464844 109.09441406 150.66210938 110.12304688 C149.33418771 112.03917545 147.99984658 113.95087591 146.65820312 115.85742188 C146.06201172 116.72044922 145.46582031 117.58347656 144.8515625 118.47265625 C144.32385254 119.22812744 143.79614258 119.98359863 143.25244141 120.76196289 C141.75924532 123.43021407 141.11184254 124.91730623 141 128 C141.90585846 131.15206841 143.2110791 134.10348548 144.53125 137.1015625 C145.10437172 138.44550079 145.10437172 138.44550079 145.68907166 139.81658936 C146.9470256 142.75820308 148.22341735 145.69142855 149.5 148.625 C150.38281084 150.67997803 151.26439093 152.73548521 152.14477539 154.79150391 C154.34833801 159.93050269 156.56597647 165.06328814 158.78741455 170.19458008 C160.5022412 174.16197788 162.20381099 178.13497976 163.90234375 182.109375 C165.98409976 186.97863721 168.0687035 191.84663917 170.15908813 196.71220398 C174.96556042 207.90117157 179.7342677 219.10613106 184.5 230.3125 C185.11767746 231.76482529 185.11767746 231.76482529 185.74783325 233.24649048 C187.45842564 237.26856618 189.16898601 241.29065549 190.87944031 245.31278992 C195.86672728 257.03961387 200.85933992 268.76416932 205.8527832 280.4883728 C207.33884957 283.97761969 208.82470125 287.46695794 210.31054688 290.95629883 C210.77571716 292.048311 211.24088745 293.14032318 211.72015381 294.26542664 C212.61619314 296.36956941 213.51160045 298.47398146 214.40631104 300.57868958 C216.24989404 304.91227527 218.09914549 309.242385 219.99316406 313.55419922 C220.4251561 314.5423185 220.4251561 314.5423185 220.86587524 315.55039978 C221.5931363 317.20930853 222.32674528 318.86543069 223.06103516 320.52124023 C224 323 224 323 224 326 C224.66 326 225.32 326 226 326 C226.0825 324.9275 226.165 323.855 226.25 322.75 C226.69752356 319.12501955 227.6308702 315.91628373 228.83984375 312.47265625 C230.94932709 306.27457287 232.66490959 300.02139709 234.3125 293.6875 C236.5461717 285.23629191 238.90421946 276.84707275 241.5 268.5 C244.30960889 259.45056439 246.85732501 250.35159852 249.25195312 241.18359375 C251.02883042 234.43235071 252.94034381 227.72949778 254.90625 221.03125 C258.37087219 209.22353832 261.75263853 197.39292125 265.125 185.55859375 C265.68491311 183.59476566 266.24484985 181.63094431 266.80480957 179.66712952 C269.12074043 171.5438994 271.43578312 163.42041736 273.74804688 155.29614258 C275.45491751 149.2996893 277.16382482 143.3038201 278.875 137.30859375 C279.14909195 136.34823589 279.4231839 135.38787804 279.70558167 134.39841843 C283.00944654 122.83290613 286.3698736 111.29178489 289.91955566 99.79893494 C291.94396807 93.24003543 293.7794343 86.64540569 295.5 80 C297.67002257 71.77753353 299.97704426 63.62107194 302.5 55.5 C305.39901057 46.16560869 307.99137412 36.76996057 310.50244141 27.32446289 C312.22807876 20.84226103 313.99292841 14.37616597 315.875 7.9375 C316.17978271 6.88393311 316.17978271 6.88393311 316.49072266 5.80908203 C317.87664063 1.12335937 317.87664063 1.12335937 319 0 C321.20867831 -0.09432985 323.42041521 -0.11742431 325.63110352 -0.11352539 C326.32375305 -0.11367142 327.01640259 -0.11381744 327.7300415 -0.1139679 C330.02969446 -0.11326874 332.32926737 -0.10547628 334.62890625 -0.09765625 C336.21931412 -0.09579208 337.80972257 -0.09436817 339.40013123 -0.09336853 C343.5939593 -0.08954329 347.78775295 -0.07971295 351.98156738 -0.06866455 C356.25788914 -0.05845057 360.53421644 -0.05387094 364.81054688 -0.04882812 C373.20704708 -0.03809069 381.60351926 -0.02101419 390 0 C390.24563438 0.95575424 390.24563438 0.95575424 390.49623108 1.93081665 C391.25676303 4.88420043 392.02094475 7.83662879 392.78515625 10.7890625 C393.04252563 11.79074463 393.29989502 12.79242676 393.56506348 13.82446289 C395.35599449 20.72975934 397.32526085 27.56142338 399.4375 34.375 C399.76484131 35.4379126 400.09218262 36.5008252 400.42944336 37.59594727 C400.68862549 38.43182373 400.94780762 39.2677002 401.21484375 40.12890625 C405.34748355 53.60117657 409.00078714 67.21896285 412.62402344 80.83544922 C415.02066594 89.83554986 417.49002006 98.79160948 420.25 107.6875 C423.50310327 118.18195844 426.52109563 128.73766597 429.5 139.3125 C429.73871826 140.15968597 429.97743652 141.00687195 430.22338867 141.87973022 C433.42829266 153.26874072 436.54253991 164.67781672 439.57592773 176.11376953 C441.6803598 183.98020124 444.02982672 191.75584851 446.44628906 199.53125 C448.48391184 206.14494817 450.29454716 212.79351405 452 219.5 C453.95689174 227.19002392 456.09128463 234.79457021 458.4375 242.375 C463.19855341 257.76321752 467.48300425 273.27678383 471.62597656 288.84179688 C471.9144043 289.92525391 472.20283203 291.00871094 472.5 292.125 C472.78584961 293.19943359 473.07169922 294.27386719 473.36621094 295.38085938 C475.58695064 303.6493053 478.01420642 311.84196979 480.60351562 320.00244141 C482.79218241 326.98501974 484.33846675 333.80002258 486 341 C463.56 341 441.12 341 418 341 C416.80375 335.555 415.6075 330.11 414.375 324.5 C411.70915574 312.41921409 408.96394153 300.37830489 405.81591797 288.41210938 C405.5892041 287.53876953 405.36249023 286.66542969 405.12890625 285.765625 C404.93369385 285.03118164 404.73848145 284.29673828 404.53735352 283.54003906 C403.80249325 280.066397 403.44038809 276.52310476 403 273 C370.33 273 337.66 273 304 273 C303.34 276.63 302.68 280.26 302 284 C301.51253603 286.31760532 301.00952018 288.63204745 300.484375 290.94140625 C300.20207031 292.18728516 299.91976563 293.43316406 299.62890625 294.71679688 C299.33886719 295.98587891 299.04882812 297.25496094 298.75 298.5625 C298.47542969 299.77357422 298.20085937 300.98464844 297.91796875 302.23242188 C294.9801083 315.16296015 291.98165998 328.07947341 289 341 C244.12 341 199.24 341 153 341 C148.50028443 329.75071108 148.50028443 329.75071108 146.85961914 325.03369141 C146.48647583 323.96460037 146.11333252 322.89550934 145.72888184 321.79402161 C145.33495239 320.6580101 144.94102295 319.5219986 144.53515625 318.3515625 C143.8815447 316.47612298 143.22793264 314.60068364 142.57430077 312.7252512 C141.8801429 310.7321416 141.18710811 308.73864484 140.49441528 306.74502563 C139.04341169 302.56904438 137.58927707 298.39415788 136.13452148 294.21948242 C135.63581276 292.78825578 135.1371098 291.35702713 134.63841248 289.92579651 C134.2648956 288.85383121 134.2648956 288.85383121 133.88383293 287.76021004 C133.12060795 285.56942417 132.35769221 283.37853083 131.59486389 281.18760681 C126.49068965 266.52898116 121.36386831 251.87830973 116.23356247 237.22881317 C114.72803177 232.92955871 113.22299486 228.63013135 111.71800232 224.33068848 C110.92200325 222.05734866 110.1256003 219.7841502 109.32875061 217.5111084 C107.50551918 212.30916411 105.68816622 207.10535927 103.88623047 201.89599609 C103.56009262 200.95580124 103.23395477 200.01560638 102.89793396 199.04692078 C102.29271003 197.30118264 101.68975714 195.55465487 101.0894928 193.8072052 C100.042943 190.12068095 100.042943 190.12068095 98 187 C97.53327881 187.7027002 97.06655762 188.40540039 96.58569336 189.12939453 C94.76935596 191.86267681 92.95180076 194.59514231 91.13354492 197.32714844 C90.36258504 198.48602751 89.59204504 199.64518607 88.82202148 200.8046875 C88.09533112 201.8988164 87.36740974 202.99212886 86.63815308 204.08454895 C85.84112896 205.28463168 85.0500717 206.48870911 84.2664032 207.69755554 C81.75872637 211.52372254 79.1159316 215.14892107 76.25036621 218.71606445 C65.24447671 232.83972938 62.85506208 243.48841916 63.31640625 261.1171875 C63.32196381 263.43986376 63.3208528 265.76256445 63.3134613 268.0852356 C63.31174331 274.12027971 63.39892337 280.15067796 63.50646973 286.18463135 C63.6170192 293.46584356 63.61393252 300.74783857 63.63051605 308.02975464 C63.66796375 319.02280846 63.84713358 330.00522805 64 341 C42.88 341 21.76 341 0 341 C0 228.47 0 115.94 0 0 Z " fill="#FEFEFE" transform="translate(1538,347)"/>
<path d="M0 0 C1.01320313 0.79470703 1.01320313 0.79470703 2.046875 1.60546875 C33.20360578 26.84242068 41.10463666 73.6429707 45.18408203 110.99609375 C46.55107888 124.27166975 46.63985938 137.56750359 46.57641602 150.90136719 C46.56268053 153.88066757 46.5696141 156.85868465 46.59692383 159.83789062 C46.74992526 176.62634032 46.12474533 193.03104678 43.71484375 209.6640625 C43.56264972 210.72097353 43.56264972 210.72097353 43.40738106 211.7992363 C41.29533515 226.13183957 38.36214708 240.45650647 33.3125 254.0625 C32.9721875 254.98514648 32.631875 255.90779297 32.28125 256.85839844 C27.4364705 269.56493376 20.97004848 280.75365203 12 291 C11.38769531 291.75539063 10.77539062 292.51078125 10.14453125 293.2890625 C-2.87943087 308.91781704 -22.33031589 318.76107869 -42 323 C-43.19455811 323.25966553 -44.38911621 323.51933105 -45.61987305 323.78686523 C-55.8820071 325.87771506 -65.82857216 326.44076496 -76.28588867 326.33618164 C-78.82828066 326.31235209 -81.36963189 326.31568332 -83.91210938 326.32226562 C-96.74124708 326.30246817 -108.36359765 324.9320225 -120.5625 320.75 C-121.47507568 320.4391748 -122.38765137 320.12834961 -123.32788086 319.80810547 C-150.34346251 310.35831983 -169.39631849 289.55713981 -181.90625 264.4453125 C-193.33795195 240.5873924 -197.75572189 214.19146537 -200 188 C-200.09571289 186.88560547 -200.19142578 185.77121094 -200.29003906 184.62304688 C-201.15753719 172.90722417 -201.15206832 161.19828243 -201.13037109 149.45507812 C-201.12501005 146.00646571 -201.13034696 142.55798349 -201.13671875 139.109375 C-201.14196013 122.91693351 -200.91324336 106.97481798 -198 91 C-197.85079102 90.13793945 -197.70158203 89.27587891 -197.54785156 88.38769531 C-192.64215784 60.31884119 -184.59535465 33.17643885 -166 11 C-165.27039062 10.11957031 -164.54078125 9.23914063 -163.7890625 8.33203125 C-144.53548459 -13.99536348 -118.00701758 -23.60172135 -89.33544922 -25.7890625 C-56.22131126 -27.88323723 -25.85472615 -21.94134073 0 0 Z " fill="#FEFEFE" transform="translate(2449,367)"/>
<path d="M0 0 C1.18479446 -0.00700928 2.36958893 -0.01401855 3.59028625 -0.02124023 C6.81994416 -0.035767 10.04893967 -0.0324486 13.27858686 -0.01972389 C16.67317476 -0.00953752 20.06772101 -0.01900554 23.46231079 -0.02526855 C29.16326745 -0.03253067 34.86401635 -0.02299733 40.56494141 -0.00390625 C47.13386167 0.01783907 53.70228478 0.01082278 60.27119291 -0.01121187 C65.93180384 -0.02943214 71.59226609 -0.03189142 77.2528969 -0.0214572 C80.62454587 -0.01525573 83.99596213 -0.0142928 87.36759567 -0.02760315 C91.13211946 -0.03781131 94.89570217 -0.02220493 98.66015625 0 C99.76177597 -0.00809692 100.86339569 -0.01619385 101.99839783 -0.02453613 C111.8469471 0.08257205 119.48793001 2.36235869 126.66357422 9.3527832 C127.15645054 9.82603688 127.64932686 10.29929056 128.15713882 10.78688526 C129.77364887 12.34851763 131.36714803 13.93131775 132.95947266 15.51757812 C134.10577874 16.64283648 135.25256043 17.76761051 136.39978027 18.89193726 C140.18888373 22.62182371 143.94191148 26.38708824 147.69384766 30.15429688 C149.06653137 31.52885106 150.43944002 32.90318063 151.81256104 34.27729797 C155.38537236 37.85388504 158.95516769 41.43346702 162.52429199 45.01373291 C166.18312093 48.68288366 169.84486519 52.34912257 173.50634766 56.015625 C180.66020698 63.18013419 187.81087589 70.34781832 194.95947266 77.51757812 C197.8545645 76.20814708 199.90539803 74.81491312 202.13232422 72.5559082 C202.72684387 71.9580098 203.32136353 71.36011139 203.93389893 70.74409485 C204.56624451 70.09828964 205.19859009 69.45248444 205.85009766 68.78710938 C206.84526398 67.7841407 206.84526398 67.7841407 207.86053467 66.76091003 C209.98165672 64.6219973 212.09599433 62.47654193 214.20947266 60.33007812 C216.30946972 58.20229053 218.41096398 56.07603983 220.51556396 53.95280457 C221.82299809 52.63330403 223.12775408 51.31114208 224.42926025 49.98579407 C228.19811233 46.17640023 232.09916978 42.5984516 236.15560913 39.09757996 C238.37089422 37.15721449 240.44773935 35.11091197 242.50244141 33.00195312 C243.26621094 32.2259375 244.02998047 31.44992187 244.81689453 30.65039062 C246.38381977 29.0480027 247.9488947 27.44380354 249.51220703 25.83789062 C250.65206055 24.68160156 250.65206055 24.68160156 251.81494141 23.50195312 C252.49194092 22.80811523 253.16894043 22.11427734 253.86645508 21.39941406 C259.56809308 16.2730609 264.84452063 15.1273914 272.30322266 15.24804688 C279.8780751 16.01667161 284.70848084 19.6689021 289.54931641 25.32226562 C292.50348763 29.92128011 293.28588231 34.49489446 293.39697266 39.89257812 C293.43693359 40.9521875 293.47689453 42.01179687 293.51806641 43.10351562 C292.04378218 52.11417584 284.55270242 58.3123408 278.31103516 64.42382812 C276.88853403 65.83621702 275.46603534 67.24860838 274.04367638 68.66114044 C272.0640356 70.62334345 270.0775181 72.57851257 268.09100342 74.53375244 C264.62016119 77.95228525 261.15906601 81.38067312 257.69979858 84.81091309 C255.86322668 86.6306881 254.02356994 88.44735696 252.18032837 90.26037598 C247.76954522 94.6201738 243.52952481 99.04252863 239.49124146 103.74957275 C236.03073911 107.74377001 232.25401583 111.44806994 228.52636719 115.19091797 C227.08660008 116.6404363 225.65788939 118.10031114 224.22900391 119.56054688 C216.62984398 127.24806532 208.21569065 135.66771741 196.77197266 135.95507812 C195.91216797 135.99503906 195.05236328 136.035 194.16650391 136.07617188 C184.01282948 134.30762688 177.29022599 127.53302437 170.35791016 120.40429688 C169.38681797 119.4238552 168.41459808 118.44452933 167.4413147 117.46626282 C164.90826944 114.91431569 162.39061792 112.3477126 159.87609863 109.77752686 C157.29730471 107.14717338 154.70392631 104.53128275 152.11181641 101.9140625 C147.04682363 96.79577972 141.99803916 91.66189209 136.95947266 86.51757812 C133.19451389 88.26282172 131.04785742 90.33947156 128.27197266 93.45507812 C127.83626953 93.94234375 127.40056641 94.42960938 126.95166016 94.93164062 C123.25066878 99.10464249 119.74279631 103.42697979 116.24072266 107.76757812 C113.09753008 111.55663219 109.75788671 115.15027164 106.42431641 118.77148438 C104.03239968 121.43632979 101.76692382 124.16589638 99.52197266 126.95507812 C96.30003302 130.94982869 92.95283301 134.76303196 89.45947266 138.51757812 C85.1008266 143.20391912 80.99238177 148.03991213 76.97509766 153.02539062 C74.36847363 156.24830948 71.67403839 159.3853869 68.95947266 162.51757812 C72.75147578 167.05708049 76.67294419 171.35933776 80.90136719 175.49365234 C81.74160431 176.32206131 81.74160431 176.32206131 82.59881592 177.16720581 C83.80250274 178.35383413 85.00724447 179.53939317 86.21295547 180.72396469 C88.78491643 183.25346118 91.34723707 185.79263224 93.91023064 188.33120918 C98.66781703 193.04327069 103.42914957 197.75138103 108.20703125 202.44287109 C111.54464722 205.7208744 114.86972869 209.01114987 118.18703842 212.3096962 C119.44631802 213.55729191 120.71010323 214.80035795 121.97858047 216.03860092 C130.90284298 224.75537282 137.90903887 232.58157816 138.27978516 245.61132812 C138.20581721 253.49487986 136.32866197 260.87451751 134.45648193 268.48803711 C133.60501373 271.95072461 132.78296056 275.42020535 131.95901489 278.88952637 C131.5435747 280.63768409 131.12664987 282.38548968 130.70822144 284.13293457 C128.9698729 291.40530764 127.37028152 298.69952366 125.83447266 306.01757812 C123.55156368 316.82606878 121.15538508 327.60521368 118.70727539 338.37744141 C117.10096601 345.44851524 115.51026518 352.52261949 113.94775391 359.60351562 C113.77871552 360.3693396 113.60967712 361.13516357 113.43551636 361.92419434 C113.26617584 362.69138794 113.09683533 363.45858154 112.92236328 364.24902344 C109.61327036 379.23907274 106.2208639 394.20223937 102.55200195 409.109375 C102.16621969 410.67730094 101.78465122 412.24627164 101.40795898 413.81640625 C99.05015964 423.5382759 95.29252405 429.67277847 86.95947266 435.51757812 C79.10671803 439.60932632 70.62033985 439.88953822 61.95947266 438.51757812 C53.85036114 435.53245794 48.93603791 430.01347291 44.95947266 422.51757812 C44.58951172 421.9271875 44.21955078 421.33679688 43.83837891 420.72851562 C38.76856181 407.97510907 44.85617844 391.26309608 48.1171875 378.81933594 C49.5016804 373.39212378 50.69912773 367.92598899 51.89697266 362.45507812 C52.14286133 361.34213379 52.38875 360.22918945 52.64208984 359.08251953 C53.9789025 353.02213012 55.2985873 346.95811734 56.61181641 340.89257812 C57.185444 338.24661624 57.75980586 335.60081449 58.33447266 332.95507812 C58.47692413 332.29838135 58.61937561 331.64168457 58.7661438 330.96508789 C61.48111441 318.47106626 64.39188426 306.02614062 67.3828125 293.59545898 C67.6298291 292.56134888 67.6298291 292.56134888 67.88183594 291.50634766 C68.32641217 289.64551113 68.7744043 287.78549162 69.22265625 285.92553711 C69.46580566 284.80091064 69.70895508 283.67628418 69.95947266 282.51757812 C70.44782593 280.78519897 70.44782593 280.78519897 70.94604492 279.01782227 C70.96059259 275.22564234 70.78249685 274.78689346 68.44604492 272.08007812 C67.24321471 270.87175881 66.01812585 269.68533607 64.77587891 268.51757812 C64.127556 267.87820313 63.47923309 267.23882813 62.81126404 266.58007812 C60.73286509 264.53976995 58.62817673 262.52912946 56.52197266 260.51757812 C55.13804086 259.16522076 53.75585853 257.81107061 52.37548828 256.45507812 C47.31802119 251.51228864 42.25257362 246.61103165 36.90307617 241.9831543 C33.26569653 238.82579544 29.85096681 235.50902027 26.48291016 232.06835938 C25.30595904 230.87877542 24.12887174 229.6893262 22.95166016 228.5 C21.13524852 226.65872961 19.32051311 224.8158629 17.50830078 222.97045898 C15.73346439 221.16529372 13.95235037 219.36650875 12.17041016 217.56835938 C11.63588226 217.02037186 11.10135437 216.47238434 10.55062866 215.90779114 C7.25448201 212.58998946 3.93516895 209.98631532 -0.04052734 207.51757812 C-0.30841064 208.10764648 -0.57629395 208.69771484 -0.85229492 209.30566406 C-2.05226217 211.5394227 -3.30664747 213.08031237 -5.05224609 214.90820312 C-5.64158936 215.53106201 -6.23093262 216.1539209 -6.83813477 216.7956543 C-7.46179932 217.44638916 -8.08546387 218.09712402 -8.72802734 218.76757812 C-10.01017114 220.12220146 -11.29143255 221.47766056 -12.57177734 222.83398438 C-13.18021484 223.4773877 -13.78865234 224.12079102 -14.41552734 224.78369141 C-16.77064111 227.29661478 -19.02496318 229.88809977 -21.27099609 232.49804688 C-23.64937155 235.21244005 -26.09561639 237.863302 -28.54052734 240.51757812 C-31.57947226 243.81780597 -34.60208945 247.12707286 -37.54052734 250.51757812 C-40.94316425 254.44369763 -44.45961908 258.26264435 -47.98266602 262.08032227 C-50.66408155 264.99240717 -53.28496559 267.94287265 -55.85302734 270.95507812 C-61.48451526 277.3701929 -67.01067399 280.8173778 -75.04052734 283.51757812 C-75.96529373 283.8593811 -76.89006012 284.20118408 -77.84284973 284.55334473 C-83.70195464 286.19876971 -89.82860069 285.82948481 -95.86352539 285.83984375 C-97.2637941 285.84911334 -98.66405782 285.85916442 -100.0643158 285.86993408 C-103.8538406 285.89605987 -107.64329473 285.90904799 -111.43289542 285.9179554 C-113.80581136 285.92383696 -116.17870841 285.93205028 -118.55161476 285.94096375 C-125.99147847 285.96828207 -133.43129849 285.98763052 -140.87120885 285.99536753 C-149.43070357 286.00432029 -157.98955815 286.03938863 -166.54885834 286.09736872 C-173.18438933 286.14074168 -179.81974112 286.16078346 -186.45541221 286.16344976 C-190.40969617 286.16553607 -194.36337715 286.17713814 -198.3175106 286.21308899 C-202.04181811 286.24629436 -205.76507726 286.25024707 -209.48948097 286.23281097 C-211.48867107 286.23056091 -213.48782828 286.25780968 -215.48681641 286.28631592 C-224.98422105 286.19946581 -233.36792522 284.1429044 -240.30602551 277.27500153 C-246.45853592 269.9740868 -248.66371996 263.04493658 -248.38818359 253.54492188 C-247.47698819 245.61035515 -244.04010846 238.77001439 -238.04052734 233.51757812 C-227.90143453 225.57129938 -216.21626593 226.82063122 -203.99564934 227.064785 C-200.2568915 227.13592594 -196.52003342 227.16365527 -192.78065491 227.17947388 C-182.1585012 227.23074079 -171.53804344 227.34846225 -160.91723633 227.52050781 C-154.39995821 227.62555823 -147.88377753 227.66658592 -141.36566353 227.67465591 C-138.89323491 227.68962152 -136.42083089 227.72712497 -133.94911003 227.78814316 C-120.35779028 228.73586841 -120.35779028 228.73586841 -108.17483521 223.96173096 C-105.29550605 221.13374551 -103.17628551 217.93837703 -101.04052734 214.51757812 C-99.54118101 212.6459936 -98.02331598 210.7889132 -96.47802734 208.95507812 C-95.75486328 208.05660156 -95.03169922 207.158125 -94.28662109 206.23242188 C-91.15885555 202.45190526 -87.82778851 198.87276938 -84.50537109 195.26367188 C-82.11345437 192.59882646 -79.84797851 189.86925987 -77.60302734 187.08007812 C-73.9454647 182.54521651 -70.09435707 178.2622163 -66.12890625 174.00048828 C-62.32653928 169.88978536 -58.79782142 165.59482229 -55.28662109 161.23242188 C-52.95222145 158.41084317 -50.52062136 155.71167101 -48.04052734 153.01757812 C-44.74721035 149.43965349 -41.59401413 145.80218147 -38.54052734 142.01757812 C-34.7021732 137.26018144 -30.64430376 132.75973894 -26.50537109 128.26367188 C-24.11345437 125.59882646 -21.84797851 122.86925987 -19.60302734 120.08007812 C-15.9454647 115.54521651 -12.09435707 111.2622163 -8.12890625 107.00048828 C-4.32653928 102.88978536 -0.79782142 98.59482229 2.71337891 94.23242188 C5.04777855 91.41084317 7.47937864 88.71167101 9.95947266 86.01757812 C13.25278965 82.43965349 16.40598587 78.80218147 19.45947266 75.01757812 C23.20395486 70.37652977 27.13714261 65.96645887 31.20947266 61.61132812 C35.3309955 57.09223073 39.11055258 52.26793374 42.95947266 47.51757812 C37.42798221 47.26884282 31.89979673 47.08823968 26.36401367 46.96826172 C24.48485579 46.91821972 22.60608248 46.85015727 20.72827148 46.76318359 C9.77567066 45.95468501 9.77567066 45.95468501 -0.18017578 49.59912109 C-2.46240605 52.12141305 -4.26834858 54.62048501 -6.04052734 57.51757812 C-6.85263672 58.4946875 -7.66474609 59.47179687 -8.50146484 60.47851562 C-9.13310547 61.27515625 -9.76474609 62.07179688 -10.41552734 62.89257812 C-14.09689423 67.44618525 -17.96827207 71.75340329 -21.95410156 76.03662109 C-24.94465376 79.26934017 -27.7782442 82.58445479 -30.54052734 86.01757812 C-34.17552124 90.53535625 -38.00763024 94.79576329 -41.95458984 99.03710938 C-45.72866003 103.11690033 -49.22499213 107.38204786 -52.70849609 111.71289062 C-56.17467066 115.88158969 -59.86030647 119.82966486 -63.56005859 123.79101562 C-66.04547923 126.44369093 -66.04547923 126.44369093 -68.07958984 129.19335938 C-71.88592323 133.70485014 -77.07013585 136.0396788 -82.85693359 136.97070312 C-90.67377528 137.27511421 -95.87380535 135.18050344 -101.79052734 130.20507812 C-107.16091439 123.79044915 -108.69868642 119.75498618 -108.34521484 111.36523438 C-107.09994161 99.72671917 -96.74469628 91.187622 -89.1262207 82.99707031 C-86.15385243 79.78610518 -83.34138727 76.49188642 -80.60302734 73.08007812 C-76.76007255 68.30216475 -72.67221405 63.82762829 -68.484375 59.35595703 C-64.5614588 55.14328707 -60.9214171 50.75344258 -57.31787109 46.26367188 C-54.37777621 42.71841166 -51.25427911 39.3583398 -48.11743164 35.98901367 C-45.20668841 32.84359019 -42.45980344 29.61922555 -39.79052734 26.26757812 C-35.8415101 21.39356585 -31.71294672 16.7077774 -27.47802734 12.08007812 C-26.86475586 11.39333008 -26.25148438 10.70658203 -25.61962891 9.99902344 C-24.71229004 9.0201416 -24.71229004 9.0201416 -23.78662109 8.02148438 C-23.25738037 7.44213135 -22.72813965 6.86277832 -22.18286133 6.26586914 C-15.0909306 0.47836875 -8.85244896 -0.06482741 0 0 Z " fill="#FEFEFE" transform="translate(542.04052734375,528.482421875)"/>
<path d="M0 0 C21.78 0 43.56 0 66 0 C73.8707483 15.7414966 73.8707483 15.7414966 76.40234375 21.35546875 C76.68163223 21.97243118 76.96092072 22.58939362 77.24867249 23.22505188 C77.84121184 24.53474843 78.43254924 25.84498942 79.02270508 27.15576172 C80.30691805 30.00796891 81.59737651 32.85733863 82.88735962 35.7069397 C83.56634894 37.20694693 84.24503751 38.70709033 84.9234314 40.20736694 C88.26068825 47.58544913 91.62761969 54.94984046 94.99853516 62.31259155 C100.49795408 74.32447144 105.97774981 86.34504195 111.4375 98.375 C117.11366108 110.88118445 122.83629003 123.36553663 128.57769775 135.84188843 C134.24815318 148.16543142 139.88244849 160.50488994 145.4765625 172.86328125 C151.25291704 185.60643342 157.13623634 198.29517873 163 211 C163.33 141.37 163.66 71.74 164 0 C184.13 0 204.26 0 225 0 C225 112.53 225 225.06 225 341 C203.88 341 182.76 341 161 341 C153.4414176 325.30140579 145.94280952 309.61068983 138.6328125 293.80078125 C134.40089267 284.67105118 130.07367255 275.58653311 125.75 266.5 C125.34580841 265.65045746 124.94161682 264.80091492 124.525177 263.92562866 C123.70621274 262.20432009 122.8872481 260.4830117 122.06828308 258.76170349 C121.6628981 257.90963821 121.25751312 257.05757294 120.83984375 256.1796875 C120.43425735 255.32725967 120.02867096 254.47483185 119.61079407 253.59657288 C115.49637582 244.94645559 111.40126075 236.28726966 107.3125 227.625 C106.96383881 226.88642761 106.61517761 226.14785522 106.25595093 225.38690186 C100.85512749 213.94476821 95.46856287 202.49594683 90.08486938 191.04574585 C83.84534648 177.77695355 77.57240558 164.52408612 71.28930664 151.27587891 C66.50778756 141.19254266 61.74618541 131.1000167 57 121 C56.88803865 148.2479468 56.95902705 175.47854759 57.42852783 202.72271729 C57.96582029 233.92048836 58.08702453 265.11015111 58.0625 296.3125 C58.06121597 297.95123203 58.06121597 297.95123203 58.05990601 299.62306976 C58.04855096 313.08207144 58.02547443 326.54100969 58 340 C38.86 340 19.72 340 0 340 C0 227.8 0 115.6 0 0 Z " fill="#FEFDFD" transform="translate(1130,347)"/>
<path d="M0 0 C23.43 0 46.86 0 71 0 C74.36848171 8.98261788 74.36848171 8.98261788 75.578125 13.66015625 C75.84802246 14.68834473 76.11791992 15.7165332 76.39599609 16.77587891 C76.67781738 17.86046387 76.95963867 18.94504883 77.25 20.0625 C79.47206855 28.46863839 81.79632852 36.82125951 84.375 45.125 C87.22082241 54.316456 89.8995669 63.54924323 92.5 72.8125 C92.69154663 73.49458527 92.88309326 74.17667053 93.08044434 74.87942505 C95.66269379 84.08954797 98.16653839 93.31848888 100.625 102.5625 C102.97876064 111.40487916 105.52972161 120.16268652 108.23486328 128.90332031 C110.7802665 137.17200704 113.16181717 145.48343055 115.5 153.8125 C115.69154663 154.49458527 115.88309326 155.17667053 116.08044434 155.87942505 C118.66269345 165.08954674 121.1666288 174.31846557 123.625 183.5625 C126.02173606 192.56950006 128.62374818 201.491104 131.37548828 210.39550781 C135.80571493 224.77704759 139.75510399 239.29609246 143.62451172 253.8371582 C146.30731793 263.9122701 149.14052738 273.91170677 152.22558594 283.87084961 C154.8649915 292.44009026 157.32276838 301.05632106 159.75 309.6875 C160.03602081 310.70109589 160.03602081 310.70109589 160.32781982 311.73516846 C167 335.40354584 167 335.40354584 167 340 C144.89 340 122.78 340 100 340 C92.01690233 307.24177163 92.01690233 307.24177163 88.5625 292.4375 C88.31612793 291.39416504 88.06975586 290.35083008 87.81591797 289.27587891 C87.5892041 288.2966748 87.36249023 287.3174707 87.12890625 286.30859375 C86.93369385 285.47126709 86.73848145 284.63394043 86.53735352 283.77124023 C85.84696307 280.21075773 85.44984911 276.59879291 85 273 C52.33 273 19.66 273 -14 273 C-15.32 279.6 -16.64 286.2 -18 293 C-19.12984309 297.74484542 -20.27967645 302.46730235 -21.5 307.1875 C-22.10775441 309.57396848 -22.71452743 311.96068711 -23.3203125 314.34765625 C-23.7519873 316.04559326 -23.7519873 316.04559326 -24.19238281 317.77783203 C-25.47729175 322.90426134 -26.67861716 328.0494295 -27.84570312 333.20385742 C-28.89815073 337.79630147 -28.89815073 337.79630147 -30 340 C-51.78 340 -73.56 340 -96 340 C-95.36702969 335.56920782 -94.7645995 331.71337253 -93.6171875 327.47265625 C-93.33617187 326.43044922 -93.05515625 325.38824219 -92.765625 324.31445312 C-92.47171875 323.24130859 -92.1778125 322.16816406 -91.875 321.0625 C-91.60429688 320.05509766 -91.33359375 319.04769531 -91.0546875 318.00976562 C-88.7642362 309.56883908 -86.31081284 301.17788584 -83.85275269 292.78457642 C-81.55733361 284.93699435 -79.30028815 277.07904234 -77.0625 269.21484375 C-76.56328537 267.4616256 -76.56328537 267.4616256 -76.0539856 265.67298889 C-74.6943994 260.89657211 -73.33565455 256.11991943 -71.97949219 251.3425293 C-68.21498969 238.08646357 -64.38198563 224.8602857 -60.33557129 211.68734741 C-58.2407894 204.8493025 -56.29608545 197.9855066 -54.5 191.0625 C-52.18475664 182.17515049 -49.66080676 173.36237248 -47.0760498 164.55032349 C-44.25652594 154.91971914 -41.49881342 145.27205252 -38.75 135.62109375 C-38.27960435 133.97057969 -37.80918589 132.32007213 -37.33874512 130.66957092 C-35.40528379 123.88504987 -33.47273631 117.10026997 -31.54296875 110.31469727 C-30.11411332 105.29121998 -28.68319584 100.26833447 -27.25 95.24609375 C-27.01953476 94.43845015 -26.78906952 93.63080654 -26.55162048 92.79868889 C-23.52904007 82.21782875 -20.42282111 71.66819327 -17.18249512 61.15158081 C-15.13395139 54.49349792 -13.25260113 47.80494013 -11.5 41.0625 C-8.41505219 29.39582059 -5.08348021 17.81160154 -1.64501953 6.24462891 C-1.0505173 4.17579715 -0.52207154 2.08828615 0 0 Z " fill="#FEFDFE" transform="translate(1443,718)"/>
<path d="M0 0 C1.30630371 -0.00555908 2.61260742 -0.01111816 3.95849609 -0.0168457 C12.24688443 0.04439855 20.16481708 0.80423599 28.3125 2.3125 C29.11051025 2.45743896 29.90852051 2.60237793 30.73071289 2.75170898 C53.10230812 7.01947806 71.79337654 18.22759288 84.71777344 37.12255859 C94.40704177 51.79546326 99.87480644 67.89366126 103.0625 85.125 C103.19043945 85.80618896 103.31837891 86.48737793 103.45019531 87.18920898 C104.07884583 90.84822062 104.37294694 94.35319452 104.34472656 98.0690918 C104.34007385 98.86735886 104.33542114 99.66562592 104.33062744 100.48808289 C104.32464539 101.09014053 104.31866333 101.69219818 104.3125 102.3125 C96.96615745 102.74421251 89.61953543 103.1709088 82.27270508 103.59423828 C79.77719642 103.73861055 77.28175213 103.88410039 74.78637695 104.03076172 C71.18457419 104.24225164 67.58255347 104.44962462 63.98046875 104.65625 C62.87793259 104.72187134 61.77539642 104.78749268 60.63945007 104.85510254 C53.85527665 105.23941327 47.10721909 105.39244471 40.3125 105.3125 C40.12045486 104.2298159 40.12045486 104.2298159 39.92453003 103.1252594 C35.99589843 79.00286372 35.99589843 79.00286372 21.3125 60.3125 C11.63123909 54.05049346 -0.41383027 52.66660308 -11.61328125 54.89453125 C-19.70157133 57.39995632 -26.50598127 62.44763803 -31.1640625 69.5703125 C-36.02932559 79.05582544 -36.16430419 90.50068218 -33.25 100.6875 C-24.34795045 123.48167533 7.62833275 135.32096019 28 144.875 C61.8304453 160.77349216 96.91139854 181.52784396 110.3125 218.3125 C116.58804204 237.04404214 116.04703932 264.81993762 109.3125 283.3125 C108.92707031 284.45074219 108.54164063 285.58898437 108.14453125 286.76171875 C103.97922361 298.36796431 98.27119377 307.93606321 90.3125 317.3125 C89.82007813 317.93898438 89.32765625 318.56546875 88.8203125 319.2109375 C72.42680418 339.67966823 43.42245961 349.40125111 18.3125 352.3125 C13.66227076 352.59433208 9.03296475 352.64679571 4.375 352.625 C3.1173584 352.62008545 1.8597168 352.6151709 0.56396484 352.61010742 C-27.73706974 352.26006925 -52.71572984 345.88532229 -74.6875 327.3125 C-75.35265625 326.75046875 -76.0178125 326.1884375 -76.703125 325.609375 C-91.507356 311.91200239 -100.60073308 291.72982914 -104.6875 272.3125 C-105.11482422 270.44078125 -105.11482422 270.44078125 -105.55078125 268.53125 C-107.80765477 257.83516696 -108.36334249 247.22207691 -108.6875 236.3125 C-59.18572114 230.84335627 -59.18572114 230.84335627 -42.6875 231.3125 C-42.65309814 231.9202124 -42.61869629 232.5279248 -42.58325195 233.15405273 C-41.38270081 252.91568299 -39.28527463 274.22135598 -23.97265625 288.58984375 C-11.84029107 297.73578058 2.80667784 297.45698248 17.3125 296.3125 C26.00106134 294.78484086 34.42209302 290.10976176 39.98828125 283.24609375 C47.90971162 271.94380476 50.3724038 261.07632123 49.3125 247.3125 C45.71861846 231.33512951 34.42518087 220.99966484 21.16992188 212.48193359 C7.62390068 203.95335295 -6.8754179 197.31968827 -21.39282227 190.640625 C-34.45572369 184.60264949 -47.61299066 178.28235265 -59 169.375 C-59.65822754 168.86759277 -60.31645508 168.36018555 -60.99462891 167.83740234 C-62.90713094 166.34668656 -64.80083578 164.8357304 -66.6875 163.3125 C-67.70972656 162.48878906 -68.73195313 161.66507813 -69.78515625 160.81640625 C-87.31303598 145.80307467 -97.71243509 124.18825182 -99.6875 101.3125 C-99.8887835 96.63136838 -99.85279861 91.99418308 -99.6875 87.3125 C-99.64302734 85.70761719 -99.64302734 85.70761719 -99.59765625 84.0703125 C-98.6179273 64.52352511 -90.85027628 47.41279311 -78.6875 32.3125 C-77.90375 31.3225 -77.12 30.3325 -76.3125 29.3125 C-67.73085517 19.50490591 -56.4191121 13.52922096 -44.6875 8.3125 C-43.5840625 7.8175 -42.480625 7.3225 -41.34375 6.8125 C-27.6570378 1.12099592 -14.6470275 0.03926061 0 0 Z " fill="#FEFDFD" transform="translate(1224.6875,711.6875)"/>
<path d="M0 0 C58.74 0 117.48 0 178 0 C178 17.82 178 35.64 178 54 C140.38 54 102.76 54 64 54 C64 80.4 64 106.8 64 134 C97.99 134 131.98 134 167 134 C167 151.82 167 169.64 167 188 C133.01 188 99.02 188 64 188 C64 220.34 64 252.68 64 286 C103.6 286 143.2 286 184 286 C184 304.15 184 322.3 184 341 C123.28 341 62.56 341 0 341 C0 228.47 0 115.94 0 0 Z " fill="#FEFDFD" transform="translate(1863,718)"/>
<path d="M0 0 C60.39 0 120.78 0 183 0 C183 17.82 183 35.64 183 54 C144.06 54 105.12 54 65 54 C65 81.72 65 109.44 65 138 C96.02 138 127.04 138 159 138 C159 155.82 159 173.64 159 192 C127.98 192 96.96 192 65 192 C65 241.17 65 290.34 65 341 C43.55 341 22.1 341 0 341 C0 228.47 0 115.94 0 0 Z " fill="#FEFEFE" transform="translate(1634,718)"/>
<path d="M0 0 C21.45 0 42.9 0 65 0 C65 94.38 65 188.76 65 286 C107.9 286 150.8 286 195 286 C195 304.15 195 322.3 195 341 C130.65 341 66.3 341 0 341 C0 228.47 0 115.94 0 0 Z " fill="#FEFDFD" transform="translate(2047,347)"/>
<path d="M0 0 C1.00289062 -0.01546875 2.00578125 -0.0309375 3.0390625 -0.046875 C15.03435059 0.01511615 25.59599364 4.45598079 34.5 12.4375 C49.69858407 28.60546984 53.2194308 52.41416364 56 73.5 C56.176521 74.79139893 56.35304199 76.08279785 56.53491211 77.41333008 C57.25340602 84.03918826 57.18502077 90.69049084 57.203125 97.34765625 C57.20736607 98.41723477 57.20736607 98.41723477 57.21169281 99.50842094 C57.22664015 103.30599193 57.23588927 107.1035256 57.24023438 110.90112305 C57.2445584 113.96765441 57.25821519 117.03389473 57.28125 120.1003418 C57.40117798 136.42023674 57.18893212 152.61167682 55.671875 168.87109375 C55.55515442 170.14114761 55.43843384 171.41120148 55.31817627 172.71974182 C53.28987848 192.46057858 48.7791169 215.7970827 33 229.5 C31.948125 230.49 31.948125 230.49 30.875 231.5 C18.02413952 240.43972903 1.52515929 241.56383651 -13.62109375 238.8515625 C-26.00011226 235.08473502 -34.94174221 227.39773782 -41.00854492 216.1652832 C-49.17870454 200.34920169 -52.20194373 184.08510411 -54 166.5 C-54.10441406 165.50790527 -54.20882812 164.51581055 -54.31640625 163.49365234 C-55.90628344 147.6477086 -56.18297693 131.8483055 -56.1875 115.9375 C-56.18849701 115.01386658 -56.18949402 114.09023315 -56.19052124 113.13861084 C-56.18114186 36.45452593 -56.18114186 36.45452593 -32 11.5 C-22.72399009 2.66570484 -12.61310752 -0.19454665 0 0 Z " fill="#ED1A2D" transform="translate(2371,397.5)"/>
<path d="M0 0 C21.12 0 42.24 0 64 0 C64 112.53 64 225.06 64 341 C42.88 341 21.76 341 0 341 C0 228.47 0 115.94 0 0 Z " fill="#FEFEFE" transform="translate(1414,347)"/>
<path d="M0 0 C0.95583984 -0.020625 1.91167969 -0.04125 2.89648438 -0.0625 C13.51648763 -0.12041413 20.8842753 2.95589458 29.3125 9.25 C29.94285156 9.70246094 30.57320312 10.15492188 31.22265625 10.62109375 C36.37627833 14.61939835 39.33520505 19.50991262 42.3125 25.25 C42.72886719 25.99894531 43.14523437 26.74789063 43.57421875 27.51953125 C48.36477235 37.38639076 47.55271979 49.97712273 44.3125 60.25 C39.16235808 73.85611818 30.40479012 81.82101436 17.609375 87.97265625 C7.5433487 91.87264511 -5.54611147 91.83075501 -15.6875 88.1875 C-26.3477329 83.45552629 -35.97350824 75.28229208 -40.84375 64.4921875 C-45.34113188 52.54081157 -47.00868943 39.86360628 -41.94140625 27.83984375 C-35.75602413 15.06442834 -27.70656597 7.1752127 -14.6875 1.25 C-9.864729 -0.20459764 -4.99593533 0.02641605 0 0 Z " fill="#FDFEFD" transform="translate(701.6875,450.75)"/>
<path d="M0 0 C0.66 0 1.32 0 2 0 C2.20044922 0.91773193 2.40089844 1.83546387 2.60742188 2.78100586 C6.28724742 19.60139456 10.02895921 36.40047458 14.125 53.125 C14.29216522 53.80759888 14.45933044 54.49019775 14.63156128 55.19348145 C14.79818268 55.8737439 14.96480408 56.55400635 15.13647461 57.25488281 C15.46735837 58.60610187 15.79816981 59.95733863 16.12890625 61.30859375 C16.2892485 61.96364899 16.44959076 62.61870422 16.61479187 63.29360962 C18.6602147 71.67285341 20.58071856 80.08034912 22.50390625 88.48828125 C23.55793784 93.09377267 24.63067633 97.69447837 25.71484375 102.29296875 C26.01189209 103.55536377 26.30894043 104.81775879 26.61499023 106.1184082 C27.17091477 108.47813531 27.72873593 110.83741723 28.28930664 113.19604492 C31.39987923 126.42471067 34.15052985 139.70247262 37 153 C13.24 153 -10.52 153 -35 153 C-34.36862228 147.9489782 -33.72508092 143.33004083 -32.6171875 138.421875 C-32.34060303 137.19307617 -32.06401855 135.96427734 -31.77905273 134.69824219 C-31.47797771 133.38209832 -31.17661952 132.0660192 -30.875 130.75 C-30.72104767 130.07215454 -30.56709534 129.39430908 -30.40847778 128.69592285 C-27.94506254 117.85138385 -25.29550553 107.06055695 -22.55615234 96.28222656 C-20.56078305 88.38337799 -18.7336268 80.4601305 -17 72.5 C-14.76109616 62.21983659 -12.28379639 52.01943575 -9.69116211 41.82324219 C-6.18656134 27.94506208 -3.09299921 13.97461653 0 0 Z " fill="#ED1B2E" transform="translate(1478,782)"/>
<path d="M0 0 C0.66 0 1.32 0 2 0 C6.26909628 16.82884609 10.36186944 33.68304409 14.22314453 50.61035156 C15.60988372 56.66110168 17.02459889 62.70531524 18.4375 68.75 C18.87642578 70.62921143 18.87642578 70.62921143 19.32421875 72.54638672 C19.91900105 75.09279844 20.51389074 77.63918507 21.10888672 80.18554688 C21.99114667 83.96210289 22.87268601 87.73882625 23.75390625 91.515625 C24.04257568 92.75272217 24.33124512 93.98981934 24.62866211 95.2644043 C25.20664967 97.74234983 25.78428994 100.2203764 26.36157227 102.69848633 C27.72264719 108.53885384 29.08751347 114.37825332 30.46636963 120.21444702 C31.11494734 122.96071698 31.76129298 125.70751018 32.4074707 128.4543457 C32.86257378 130.38479076 33.32089046 132.31447732 33.77929688 134.24414062 C34.19405273 136.00854492 34.19405273 136.00854492 34.6171875 137.80859375 C34.86065918 138.83782959 35.10413086 139.86706543 35.35498047 140.92749023 C36.05393173 144.25690037 36.51888661 147.63220627 37 151 C13.24 151 -10.52 151 -35 151 C-32.75285654 136.3935675 -32.75285654 136.3935675 -31.265625 130.6796875 C-30.94198975 129.41672852 -30.61835449 128.15376953 -30.28491211 126.85253906 C-30.11619598 126.20450317 -29.94747986 125.55646729 -29.77365112 124.88879395 C-28.86131192 121.38023056 -27.97087626 117.86614031 -27.08203125 114.3515625 C-26.81326927 113.28959656 -26.81326927 113.28959656 -26.53907776 112.20617676 C-24.87404435 105.58247897 -23.38424583 98.92462421 -21.9375 92.25 C-19.69847701 81.93983225 -17.20629522 71.71317025 -14.60742188 61.48828125 C-12.2964332 52.33615391 -10.22211075 43.14493599 -8.21240234 33.92260742 C-5.71884735 22.55364444 -2.8938139 11.27284739 0 0 Z " fill="#ED1B2E" transform="translate(1891,413)"/>
</svg>
